<svg xmlns="http://www.w3.org/2000/svg" viewBox="0 0 24 24"><circle cx="12" cy="12" r="10" fill="#fff"/><path fill="#101820" d="M12 2a10 10 0 0 0-3 19.5c.5.1.7-.2.7-.5v-1.7c-2.8.6-3.4-1.3-3.4-1.3-.5-1.2-1.1-1.5-1.1-1.5-.9-.6.1-.6.1-.6 1 .1 1.5 1.1 1.5 1.1.9 1.6 2.4 1.1 3 .8.1-.7.4-1.1.7-1.4-2.2-.2-4.5-1.1-4.5-5 0-1.1.4-2 1.1-2.8-.1-.2-.5-1.3.1-2.7 0 0 .9-.3 2.9 1.1.9-.3 1.8-.4 2.7-.4s1.8.1 2.7.4c2-1.4 2.9-1.1 2.9-1.1.6 1.4.2 2.5.1 2.7.7.8 1.1 1.7 1.1 2.8 0 3.9-2.3 4.8-4.5 5 .4.3.7.9.7 1.9v2.8c0 .3.2.6.7.5A10 10 0 0 0 12 2z"/></svg>